<svg width="48" height="48" viewBox="0 0 48 48" fill="none" xmlns="http://www.w3.org/2000/svg">
<path fill-rule="evenodd" clip-rule="evenodd" d="M24 48C20.6 48 17.44 47.39 14.52 46.17C11.6 44.95 9.06 43.26 6.89999 41.1C4.73999 38.94 3.04999 36.4 1.82999 33.48C0.609985 30.56 0 27.4 0 24C0 20.64 0.609985 17.5 1.82999 14.58C3.04999 11.66 4.73999 9.12 6.89999 6.95999C9.06 4.79999 11.6 3.10001 14.52 1.85999C17.44 0.619995 20.6 0 24 0C27.36 0 30.5 0.619995 33.42 1.85999C36.34 3.10001 38.88 4.79999 41.04 6.95999C43.2 9.12 44.9 11.66 46.14 14.58C47.38 17.5 48 20.64 48 24C48 27.4 47.38 30.56 46.14 33.48C44.9 36.4 43.2 38.94 41.04 41.1C38.88 43.26 36.34 44.95 33.42 46.17C30.5 47.39 27.36 48 24 48ZM24 44.4C29.6 44.4 34.4 42.4 38.4 38.4C42.4 34.4 44.4 29.6 44.4 24C44.4 18.4 42.4 13.6 38.4 9.60001C34.4 5.60001 29.6 3.60001 24 3.60001C18.4 3.60001 13.6 5.60001 9.60001 9.60001C5.60001 13.6 3.60001 18.4 3.60001 24C3.60001 29.6 5.60001 34.4 9.60001 38.4C13.6 42.4 18.4 44.4 24 44.4ZM19 33H15V15H19V33ZM29 33H33V15H29V33Z" fill="#323238"/>
</svg>
